<mxfile host="app.diagrams.net" modified="2022-06-20T14:33:46.373Z" agent="5.0 (Macintosh; Intel Mac OS X 10_15_7) AppleWebKit/537.36 (KHTML, like Gecko) Chrome/102.0.5005.115 Safari/537.36" etag="un0J3s2baNNc4dh99Th3" version="18.1.2" type="github" pages="2">
  <diagram id="NDha9XyJWKI6wTgdjnXo" name="Page-1">
    <mxGraphModel dx="1455" dy="1000" grid="1" gridSize="10" guides="1" tooltips="1" connect="1" arrows="1" fold="1" page="1" pageScale="1" pageWidth="850" pageHeight="1100" math="0" shadow="0">
      <root>
        <mxCell id="0" />
        <mxCell id="1" parent="0" />
        <mxCell id="OX3iMa-Q4UsDjBHExUNI-43" value="&lt;b&gt;Liquidity Provider&lt;/b&gt;" style="rounded=1;whiteSpace=wrap;html=1;shadow=0;fontSize=16;strokeWidth=4;fillColor=none;gradientColor=none;" parent="1" vertex="1">
          <mxGeometry x="65.64" y="60" width="188.25" height="40" as="geometry" />
        </mxCell>
        <mxCell id="OX3iMa-Q4UsDjBHExUNI-44" value="&lt;b&gt;Trader&lt;/b&gt;" style="rounded=1;whiteSpace=wrap;html=1;shadow=0;fontSize=16;strokeWidth=4;fillColor=none;gradientColor=none;" parent="1" vertex="1">
          <mxGeometry x="765.64" y="60" width="188.25" height="40" as="geometry" />
        </mxCell>
        <mxCell id="OX3iMa-Q4UsDjBHExUNI-46" value="&lt;div&gt;&lt;b&gt;Pool of AMM-based DEX&lt;/b&gt;&lt;/div&gt;&lt;div&gt;&lt;b&gt;&lt;br&gt;&lt;/b&gt;&lt;/div&gt;&lt;div&gt;&lt;b&gt;&lt;br&gt;&lt;/b&gt;&lt;/div&gt;&lt;div&gt;&lt;b&gt;&lt;br&gt;&lt;/b&gt;&lt;/div&gt;&lt;div&gt;&lt;b&gt;&lt;br&gt;&lt;/b&gt;&lt;/div&gt;&lt;div&gt;&lt;b&gt;&lt;br&gt;&lt;/b&gt;&lt;/div&gt;&lt;div&gt;&lt;b&gt;&lt;br&gt;&lt;/b&gt;&lt;/div&gt;&lt;div&gt;&lt;b&gt;&lt;br&gt;&lt;/b&gt;&lt;/div&gt;&lt;div&gt;&lt;b&gt;&lt;br&gt;&lt;/b&gt;&lt;/div&gt;&lt;div&gt;&lt;br&gt;&lt;/div&gt;" style="rounded=1;whiteSpace=wrap;html=1;shadow=0;fontSize=16;strokeWidth=4;fillColor=none;gradientColor=none;align=center;" parent="1" vertex="1">
          <mxGeometry x="335.64" y="60" width="330" height="240" as="geometry" />
        </mxCell>
        <mxCell id="OX3iMa-Q4UsDjBHExUNI-48" value="&lt;div&gt;&lt;b&gt;DEPOSIT&lt;/b&gt;&lt;/div&gt;&lt;div&gt;&lt;br&gt;&lt;/div&gt;&lt;span style=&quot;text-align: left&quot;&gt;&amp;nbsp;Input: &lt;font color=&quot;#ff8000&quot;&gt;10 Token A&lt;/font&gt;&lt;font color=&quot;#cc6600&quot;&gt; &lt;/font&gt;+ &lt;font color=&quot;#ff00ff&quot;&gt;1 Token B&lt;/font&gt;&lt;/span&gt;&lt;br style=&quot;text-align: left&quot;&gt;&lt;span style=&quot;text-align: left&quot;&gt;&amp;nbsp;Output: &lt;font color=&quot;#009900&quot;&gt;4 LP Shares&lt;/font&gt;&lt;/span&gt;" style="rounded=0;whiteSpace=wrap;html=1;shadow=0;fontSize=16;strokeWidth=2;fillColor=none;gradientColor=none;" parent="1" vertex="1">
          <mxGeometry x="34.33" y="190" width="250.87" height="100" as="geometry" />
        </mxCell>
        <mxCell id="OX3iMa-Q4UsDjBHExUNI-49" value="&lt;div&gt;&lt;b&gt;SWAP&lt;/b&gt;&lt;/div&gt;&lt;div&gt;&lt;br&gt;&lt;/div&gt;&lt;span style=&quot;text-align: left&quot;&gt;&amp;nbsp;Input: &lt;font color=&quot;#ff8000&quot;&gt;10 Token A&lt;/font&gt; + &lt;font color=&quot;#ff8000&quot;&gt;0.03 % Fee&lt;/font&gt;&lt;/span&gt;&lt;br style=&quot;text-align: left&quot;&gt;&lt;span style=&quot;text-align: left&quot;&gt;&amp;nbsp;Output: &lt;font color=&quot;#ff00ff&quot;&gt;1 Token B&lt;/font&gt;&lt;/span&gt;" style="rounded=0;whiteSpace=wrap;html=1;shadow=0;fontSize=16;strokeWidth=2;fillColor=none;gradientColor=none;" parent="1" vertex="1">
          <mxGeometry x="730.36" y="190" width="258.81" height="100" as="geometry" />
        </mxCell>
        <mxCell id="OX3iMa-Q4UsDjBHExUNI-50" value="&lt;b&gt;Reserves&lt;/b&gt;&lt;br&gt;&lt;font color=&quot;#ff8000&quot;&gt;100 Token A&lt;/font&gt;&lt;br&gt;&lt;font color=&quot;#ff00ff&quot;&gt;10 Token B&lt;/font&gt;" style="rounded=0;whiteSpace=wrap;html=1;shadow=0;fontSize=16;strokeWidth=2;fillColor=none;gradientColor=none;" parent="1" vertex="1">
          <mxGeometry x="386.64" y="130" width="218" height="60" as="geometry" />
        </mxCell>
        <mxCell id="OX3iMa-Q4UsDjBHExUNI-51" value="&lt;b&gt;Liquidity Shares&lt;/b&gt;&lt;br&gt;&lt;font color=&quot;#009900&quot;&gt;12 Pool Tokens&lt;/font&gt;" style="rounded=0;whiteSpace=wrap;html=1;shadow=0;fontSize=16;strokeWidth=2;fillColor=none;gradientColor=none;" parent="1" vertex="1">
          <mxGeometry x="386.64" y="200" width="218" height="60" as="geometry" />
        </mxCell>
        <mxCell id="OX3iMa-Q4UsDjBHExUNI-52" value="" style="endArrow=classic;html=1;rounded=0;fontSize=16;strokeWidth=2;entryX=0.25;entryY=1;entryDx=0;entryDy=0;exitX=0.321;exitY=-0.002;exitDx=0;exitDy=0;exitPerimeter=0;" parent="1" source="OX3iMa-Q4UsDjBHExUNI-49" target="OX3iMa-Q4UsDjBHExUNI-44" edge="1">
          <mxGeometry width="50" height="50" relative="1" as="geometry">
            <mxPoint x="680.36" y="420" as="sourcePoint" />
            <mxPoint x="730.36" y="370" as="targetPoint" />
          </mxGeometry>
        </mxCell>
        <mxCell id="OX3iMa-Q4UsDjBHExUNI-53" value="" style="endArrow=classic;html=1;rounded=0;fontSize=16;strokeWidth=2;entryX=0.686;entryY=-0.002;entryDx=0;entryDy=0;exitX=0.75;exitY=1;exitDx=0;exitDy=0;entryPerimeter=0;" parent="1" source="OX3iMa-Q4UsDjBHExUNI-44" target="OX3iMa-Q4UsDjBHExUNI-49" edge="1">
          <mxGeometry width="50" height="50" relative="1" as="geometry">
            <mxPoint x="823.4380100000002" y="199.80000000000007" as="sourcePoint" />
            <mxPoint x="822.7025" y="110" as="targetPoint" />
          </mxGeometry>
        </mxCell>
        <mxCell id="OX3iMa-Q4UsDjBHExUNI-54" value="" style="endArrow=classic;html=1;fontSize=16;strokeWidth=2;exitX=0;exitY=0.25;exitDx=0;exitDy=0;entryX=1;entryY=0.25;entryDx=0;entryDy=0;strokeColor=default;rounded=1;" parent="1" source="OX3iMa-Q4UsDjBHExUNI-49" target="OX3iMa-Q4UsDjBHExUNI-50" edge="1">
          <mxGeometry width="50" height="50" relative="1" as="geometry">
            <mxPoint x="823.4380100000002" y="199.80000000000007" as="sourcePoint" />
            <mxPoint x="665.64" y="215" as="targetPoint" />
            <Array as="points">
              <mxPoint x="705.64" y="215" />
              <mxPoint x="705.64" y="145" />
            </Array>
          </mxGeometry>
        </mxCell>
        <mxCell id="OX3iMa-Q4UsDjBHExUNI-55" value="" style="endArrow=classic;html=1;rounded=1;fontSize=16;strokeWidth=2;entryX=0;entryY=0.75;entryDx=0;entryDy=0;exitX=1;exitY=0.75;exitDx=0;exitDy=0;" parent="1" source="OX3iMa-Q4UsDjBHExUNI-50" target="OX3iMa-Q4UsDjBHExUNI-49" edge="1">
          <mxGeometry width="50" height="50" relative="1" as="geometry">
            <mxPoint x="916.8275" y="110" as="sourcePoint" />
            <mxPoint x="917.9036600000001" y="199.80000000000007" as="targetPoint" />
            <Array as="points">
              <mxPoint x="685.64" y="175" />
              <mxPoint x="685.64" y="265" />
            </Array>
          </mxGeometry>
        </mxCell>
        <mxCell id="OX3iMa-Q4UsDjBHExUNI-56" value="" style="endArrow=classic;html=1;rounded=0;fontSize=16;strokeWidth=2;entryX=0.25;entryY=1;entryDx=0;entryDy=0;exitX=0.311;exitY=-0.002;exitDx=0;exitDy=0;exitPerimeter=0;" parent="1" source="OX3iMa-Q4UsDjBHExUNI-48" target="OX3iMa-Q4UsDjBHExUNI-43" edge="1">
          <mxGeometry width="50" height="50" relative="1" as="geometry">
            <mxPoint x="126.37801000000026" y="229.80000000000007" as="sourcePoint" />
            <mxPoint x="125.64250000000006" y="140" as="targetPoint" />
          </mxGeometry>
        </mxCell>
        <mxCell id="OX3iMa-Q4UsDjBHExUNI-61" value="&lt;span style=&quot;color: rgb(0 , 0 , 0) ; text-align: left ; background-color: rgb(248 , 249 , 250)&quot;&gt;Claim&lt;br&gt;LP Shares&lt;/span&gt;" style="edgeLabel;html=1;align=center;verticalAlign=middle;resizable=0;points=[];fontSize=16;fontColor=#FF8000;" parent="OX3iMa-Q4UsDjBHExUNI-56" vertex="1" connectable="0">
          <mxGeometry x="0.1637" y="-1" relative="1" as="geometry">
            <mxPoint x="-1" y="6" as="offset" />
          </mxGeometry>
        </mxCell>
        <mxCell id="OX3iMa-Q4UsDjBHExUNI-57" value="&lt;span style=&quot;text-align: left ; background-color: rgb(248 , 249 , 250)&quot;&gt;Add&lt;br&gt;Provision&lt;/span&gt;" style="endArrow=classic;html=1;rounded=0;fontSize=16;strokeWidth=2;entryX=0.688;entryY=-0.002;entryDx=0;entryDy=0;exitX=0.75;exitY=1;exitDx=0;exitDy=0;entryPerimeter=0;" parent="1" source="OX3iMa-Q4UsDjBHExUNI-43" target="OX3iMa-Q4UsDjBHExUNI-48" edge="1">
          <mxGeometry width="50" height="50" relative="1" as="geometry">
            <mxPoint x="916.8275" y="110" as="sourcePoint" />
            <mxPoint x="917.9036600000001" y="199.80000000000007" as="targetPoint" />
          </mxGeometry>
        </mxCell>
        <mxCell id="OX3iMa-Q4UsDjBHExUNI-58" value="" style="endArrow=classic;html=1;rounded=1;fontSize=16;strokeWidth=2;entryX=0;entryY=0.5;entryDx=0;entryDy=0;exitX=1;exitY=0.25;exitDx=0;exitDy=0;" parent="1" source="OX3iMa-Q4UsDjBHExUNI-48" target="OX3iMa-Q4UsDjBHExUNI-50" edge="1">
          <mxGeometry width="50" height="50" relative="1" as="geometry">
            <mxPoint x="823.4380100000002" y="199.80000000000007" as="sourcePoint" />
            <mxPoint x="822.7025" y="110" as="targetPoint" />
            <Array as="points">
              <mxPoint x="315.64" y="215" />
              <mxPoint x="316" y="160" />
            </Array>
          </mxGeometry>
        </mxCell>
        <mxCell id="OX3iMa-Q4UsDjBHExUNI-59" value="" style="endArrow=classic;html=1;rounded=1;fontSize=16;strokeWidth=2;entryX=1;entryY=0.75;entryDx=0;entryDy=0;exitX=0;exitY=0.5;exitDx=0;exitDy=0;" parent="1" source="OX3iMa-Q4UsDjBHExUNI-51" target="OX3iMa-Q4UsDjBHExUNI-48" edge="1">
          <mxGeometry width="50" height="50" relative="1" as="geometry">
            <mxPoint x="823.4380100000002" y="199.80000000000007" as="sourcePoint" />
            <mxPoint x="822.7025" y="110" as="targetPoint" />
            <Array as="points">
              <mxPoint x="325.64" y="230" />
              <mxPoint x="325.64" y="265" />
            </Array>
          </mxGeometry>
        </mxCell>
        <mxCell id="OX3iMa-Q4UsDjBHExUNI-60" value="&lt;div style=&quot;text-align: left&quot;&gt;&lt;span&gt;1. 把add provision和claim LP shares分开来？&lt;/span&gt;&lt;/div&gt;&lt;div style=&quot;text-align: left&quot;&gt;&lt;span&gt;2. 加入bonding curve?&lt;/span&gt;&lt;/div&gt;" style="text;html=1;align=center;verticalAlign=middle;resizable=0;points=[];autosize=1;strokeColor=none;fillColor=none;fontSize=16;" parent="1" vertex="1">
          <mxGeometry x="46.639999999999986" y="390" width="340" height="40" as="geometry" />
        </mxCell>
      </root>
    </mxGraphModel>
  </diagram>
  <diagram id="n-mC-YxK03xASDTg-YdO" name="Page-2">
    <mxGraphModel dx="1261" dy="867" grid="1" gridSize="10" guides="1" tooltips="1" connect="1" arrows="1" fold="1" page="1" pageScale="1" pageWidth="827" pageHeight="1169" math="0" shadow="0">
      <root>
        <mxCell id="NF0Np_t6BkGrypGyfuFB-0" />
        <mxCell id="NF0Np_t6BkGrypGyfuFB-1" parent="NF0Np_t6BkGrypGyfuFB-0" />
        <mxCell id="FciFHrLaRQf3QhfO1faf-2" value="" style="whiteSpace=wrap;html=1;aspect=fixed;rounded=0;fontColor=#FF00FF;fillColor=none;" parent="NF0Np_t6BkGrypGyfuFB-1" vertex="1">
          <mxGeometry x="635.6900000000002" y="194" width="240" height="240" as="geometry" />
        </mxCell>
        <mxCell id="NF0Np_t6BkGrypGyfuFB-2" value="&lt;b&gt;Liquidity Provider&lt;/b&gt;" style="rounded=1;whiteSpace=wrap;html=1;shadow=0;fontSize=16;strokeWidth=4;fillColor=none;gradientColor=none;" parent="NF0Np_t6BkGrypGyfuFB-1" vertex="1">
          <mxGeometry x="65.64" y="60" width="188.25" height="40" as="geometry" />
        </mxCell>
        <mxCell id="NF0Np_t6BkGrypGyfuFB-4" value="&lt;div&gt;&lt;b&gt;Pool of AMM-based DEX&lt;/b&gt;&lt;/div&gt;&lt;div&gt;&lt;b&gt;&lt;br&gt;&lt;/b&gt;&lt;/div&gt;&lt;div&gt;&lt;b&gt;&lt;br&gt;&lt;/b&gt;&lt;/div&gt;&lt;div&gt;&lt;b&gt;&lt;br&gt;&lt;/b&gt;&lt;/div&gt;&lt;div&gt;&lt;b&gt;&lt;br&gt;&lt;/b&gt;&lt;/div&gt;&lt;div&gt;&lt;b&gt;&lt;br&gt;&lt;/b&gt;&lt;/div&gt;&lt;div&gt;&lt;b&gt;&lt;br&gt;&lt;/b&gt;&lt;/div&gt;&lt;div&gt;&lt;b&gt;&lt;br&gt;&lt;/b&gt;&lt;/div&gt;&lt;div&gt;&lt;b&gt;&lt;br&gt;&lt;/b&gt;&lt;/div&gt;&lt;div&gt;&lt;br&gt;&lt;/div&gt;" style="rounded=1;whiteSpace=wrap;html=1;shadow=0;fontSize=16;strokeWidth=4;fillColor=none;gradientColor=none;align=center;" parent="NF0Np_t6BkGrypGyfuFB-1" vertex="1">
          <mxGeometry x="335.64" y="60" width="244.36" height="240" as="geometry" />
        </mxCell>
        <mxCell id="NF0Np_t6BkGrypGyfuFB-5" value="&lt;div&gt;&lt;b&gt;DEPOSIT &lt;/b&gt;action&lt;/div&gt;&lt;div&gt;&lt;br&gt;&lt;/div&gt;&lt;span style=&quot;text-align: left&quot;&gt;&amp;nbsp;Input: &lt;font color=&quot;#ff8000&quot;&gt;&lt;b&gt;10 Token A&lt;/b&gt;&lt;/font&gt;&lt;font color=&quot;#cc6600&quot;&gt; &lt;/font&gt;+ &lt;font color=&quot;#ff00ff&quot;&gt;&lt;b&gt;1 Token B&lt;/b&gt;&lt;/font&gt;&lt;/span&gt;&lt;br style=&quot;text-align: left&quot;&gt;&lt;span style=&quot;text-align: left&quot;&gt;&amp;nbsp;Output: &lt;font color=&quot;#009900&quot;&gt;&lt;b&gt;4 LP Shares&lt;/b&gt;&lt;/font&gt;&lt;/span&gt;" style="rounded=0;whiteSpace=wrap;html=1;shadow=0;fontSize=16;strokeWidth=2;fillColor=none;gradientColor=none;" parent="NF0Np_t6BkGrypGyfuFB-1" vertex="1">
          <mxGeometry x="34.33" y="190" width="250.87" height="100" as="geometry" />
        </mxCell>
        <mxCell id="NF0Np_t6BkGrypGyfuFB-7" value="&lt;font&gt;&lt;b style=&quot;font-size: 16px&quot;&gt;Reserves&lt;/b&gt;&lt;br&gt;&lt;b style=&quot;font-size: 16px&quot;&gt;&lt;span style=&quot;color: rgb(255 , 128 , 0)&quot;&gt;Token A: 90&amp;nbsp;&lt;/span&gt;&lt;/b&gt;&lt;span style=&quot;font-family: &amp;#34;arial unicode ms&amp;#34; , &amp;#34;lucida sans unicode&amp;#34; , sans-serif&quot;&gt;&lt;font style=&quot;font-size: 21px&quot; color=&quot;#ff8000&quot;&gt;→&lt;/font&gt;&lt;/span&gt;&lt;b style=&quot;font-size: 16px&quot;&gt;&lt;span style=&quot;color: rgb(255 , 128 , 0)&quot;&gt;&amp;nbsp;100&lt;/span&gt;&lt;br&gt;&lt;font color=&quot;#ff00ff&quot; style=&quot;font-size: 16px&quot;&gt;Token B: 9&amp;nbsp;&lt;/font&gt;&lt;/b&gt;&lt;span style=&quot;font-family: &amp;#34;arial unicode ms&amp;#34; , &amp;#34;lucida sans unicode&amp;#34; , sans-serif&quot;&gt;&lt;font color=&quot;#ff00ff&quot; style=&quot;font-size: 21px&quot;&gt;→&lt;/font&gt;&lt;/span&gt;&lt;b style=&quot;font-size: 16px&quot;&gt;&lt;font color=&quot;#ff00ff&quot; style=&quot;font-size: 16px&quot;&gt;&amp;nbsp;10&lt;/font&gt;&lt;/b&gt;&lt;/font&gt;" style="rounded=1;whiteSpace=wrap;html=1;shadow=0;fontSize=16;strokeWidth=2;fillColor=none;gradientColor=none;" parent="NF0Np_t6BkGrypGyfuFB-1" vertex="1">
          <mxGeometry x="368.82" y="120" width="181.18" height="80" as="geometry" />
        </mxCell>
        <mxCell id="NF0Np_t6BkGrypGyfuFB-8" value="&lt;b&gt;Liquidity Shares&lt;/b&gt;&lt;br&gt;&lt;font color=&quot;#009900&quot;&gt;&lt;b&gt;Pool Tokens: 36&amp;nbsp;&lt;/b&gt;&lt;span style=&quot;font-family: &amp;#34;arial unicode ms&amp;#34; , &amp;#34;lucida sans unicode&amp;#34; , sans-serif&quot;&gt;&lt;font style=&quot;font-size: 21px&quot;&gt;→&lt;/font&gt;&lt;/span&gt;&lt;b&gt;&amp;nbsp;40&lt;/b&gt;&lt;b&gt;&amp;nbsp;&amp;nbsp;&lt;/b&gt;&lt;/font&gt;" style="rounded=1;whiteSpace=wrap;html=1;shadow=0;fontSize=16;strokeWidth=2;fillColor=none;gradientColor=none;" parent="NF0Np_t6BkGrypGyfuFB-1" vertex="1">
          <mxGeometry x="368.82" y="210" width="181.18" height="70" as="geometry" />
        </mxCell>
        <mxCell id="NF0Np_t6BkGrypGyfuFB-13" value="" style="endArrow=classic;html=1;rounded=0;fontSize=16;strokeWidth=2;entryX=0.25;entryY=1;entryDx=0;entryDy=0;exitX=0.311;exitY=-0.002;exitDx=0;exitDy=0;exitPerimeter=0;" parent="NF0Np_t6BkGrypGyfuFB-1" source="NF0Np_t6BkGrypGyfuFB-5" target="NF0Np_t6BkGrypGyfuFB-2" edge="1">
          <mxGeometry width="50" height="50" relative="1" as="geometry">
            <mxPoint x="126.37801000000026" y="229.80000000000007" as="sourcePoint" />
            <mxPoint x="125.64250000000006" y="140" as="targetPoint" />
          </mxGeometry>
        </mxCell>
        <mxCell id="NF0Np_t6BkGrypGyfuFB-14" value="&lt;span style=&quot;color: rgb(0 , 0 , 0) ; text-align: left ; background-color: rgb(248 , 249 , 250)&quot;&gt;Claim&lt;br&gt;LP Shares&lt;/span&gt;" style="edgeLabel;html=1;align=center;verticalAlign=middle;resizable=0;points=[];fontSize=16;fontColor=#FF8000;" parent="NF0Np_t6BkGrypGyfuFB-13" vertex="1" connectable="0">
          <mxGeometry x="0.1637" y="-1" relative="1" as="geometry">
            <mxPoint x="-1" y="6" as="offset" />
          </mxGeometry>
        </mxCell>
        <mxCell id="NF0Np_t6BkGrypGyfuFB-15" value="&lt;span style=&quot;text-align: left ; background-color: rgb(248 , 249 , 250)&quot;&gt;Add&lt;br&gt;Liquidity&lt;/span&gt;" style="endArrow=classic;html=1;rounded=0;fontSize=16;strokeWidth=2;entryX=0.688;entryY=-0.002;entryDx=0;entryDy=0;exitX=0.75;exitY=1;exitDx=0;exitDy=0;entryPerimeter=0;" parent="NF0Np_t6BkGrypGyfuFB-1" source="NF0Np_t6BkGrypGyfuFB-2" target="NF0Np_t6BkGrypGyfuFB-5" edge="1">
          <mxGeometry width="50" height="50" relative="1" as="geometry">
            <mxPoint x="916.8275" y="110" as="sourcePoint" />
            <mxPoint x="917.9036600000001" y="199.80000000000007" as="targetPoint" />
          </mxGeometry>
        </mxCell>
        <mxCell id="NF0Np_t6BkGrypGyfuFB-16" value="" style="endArrow=classic;html=1;rounded=1;fontSize=16;strokeWidth=2;entryX=0;entryY=0.5;entryDx=0;entryDy=0;exitX=1;exitY=0.25;exitDx=0;exitDy=0;" parent="NF0Np_t6BkGrypGyfuFB-1" source="NF0Np_t6BkGrypGyfuFB-5" target="NF0Np_t6BkGrypGyfuFB-7" edge="1">
          <mxGeometry width="50" height="50" relative="1" as="geometry">
            <mxPoint x="823.4380100000002" y="199.80000000000007" as="sourcePoint" />
            <mxPoint x="822.7025" y="110" as="targetPoint" />
            <Array as="points">
              <mxPoint x="315.64" y="215" />
              <mxPoint x="316" y="160" />
            </Array>
          </mxGeometry>
        </mxCell>
        <mxCell id="NF0Np_t6BkGrypGyfuFB-17" value="" style="endArrow=classic;html=1;rounded=1;fontSize=16;strokeWidth=2;entryX=1;entryY=0.75;entryDx=0;entryDy=0;exitX=0;exitY=0.5;exitDx=0;exitDy=0;" parent="NF0Np_t6BkGrypGyfuFB-1" source="NF0Np_t6BkGrypGyfuFB-8" target="NF0Np_t6BkGrypGyfuFB-5" edge="1">
          <mxGeometry width="50" height="50" relative="1" as="geometry">
            <mxPoint x="823.4380100000002" y="199.80000000000007" as="sourcePoint" />
            <mxPoint x="822.7025" y="110" as="targetPoint" />
            <Array as="points">
              <mxPoint x="350" y="245" />
              <mxPoint x="350" y="265" />
            </Array>
          </mxGeometry>
        </mxCell>
        <mxCell id="NF0Np_t6BkGrypGyfuFB-33" value="&lt;span style=&quot;font-family: &amp;#34;helvetica&amp;#34; ; font-size: 16px ; font-style: normal ; letter-spacing: normal ; text-indent: 0px ; text-transform: none ; word-spacing: 0px ; background-color: rgb(248 , 249 , 250) ; display: inline ; float: none&quot;&gt;Amount&lt;font color=&quot;#ff8000&quot; style=&quot;font-weight: bold&quot;&gt; Token A&lt;/font&gt;&lt;/span&gt;" style="text;whiteSpace=wrap;html=1;align=center;" parent="NF0Np_t6BkGrypGyfuFB-1" vertex="1">
          <mxGeometry x="671.37" y="434" width="168.64" height="30" as="geometry" />
        </mxCell>
        <mxCell id="NF0Np_t6BkGrypGyfuFB-34" value="&lt;span style=&quot;font-family: &amp;#34;helvetica&amp;#34; ; font-size: 16px ; font-style: normal ; letter-spacing: normal ; text-indent: 0px ; text-transform: none ; word-spacing: 0px ; background-color: rgb(248 , 249 , 250) ; display: inline ; float: none&quot;&gt;Amount&lt;b style=&quot;color: rgb(255 , 0 , 255)&quot;&gt; Token B&lt;/b&gt;&lt;/span&gt;" style="text;whiteSpace=wrap;html=1;rotation=-90;align=center;" parent="NF0Np_t6BkGrypGyfuFB-1" vertex="1">
          <mxGeometry x="546.33" y="299" width="150" height="30" as="geometry" />
        </mxCell>
        <mxCell id="9s0jYGuW6LMjN6YKZ2_i-1" value="&lt;b&gt;Trader&lt;/b&gt;" style="rounded=1;whiteSpace=wrap;html=1;shadow=0;fontSize=16;strokeWidth=4;fillColor=none;gradientColor=none;" parent="NF0Np_t6BkGrypGyfuFB-1" vertex="1">
          <mxGeometry x="69.60999999999999" y="690" width="188.25" height="40" as="geometry" />
        </mxCell>
        <mxCell id="9s0jYGuW6LMjN6YKZ2_i-4" value="&lt;div&gt;&lt;b&gt;SWAP &lt;/b&gt;action&lt;/div&gt;&lt;div&gt;&lt;br&gt;&lt;/div&gt;&lt;span style=&quot;text-align: left&quot;&gt;&amp;nbsp;Input: &lt;font color=&quot;#ff8000&quot;&gt;&lt;b&gt;90 Token A&lt;/b&gt;&lt;/font&gt;&lt;/span&gt;&lt;br style=&quot;text-align: left&quot;&gt;&lt;span style=&quot;text-align: left&quot;&gt;&amp;nbsp;Output: &lt;b&gt;&lt;font color=&quot;#ff00ff&quot;&gt;90&lt;/font&gt;&lt;/b&gt;&lt;font color=&quot;#ff00ff&quot;&gt;&lt;b&gt;&amp;nbsp;Token B&lt;/b&gt;&lt;/font&gt;&lt;/span&gt;" style="rounded=0;whiteSpace=wrap;html=1;shadow=0;fontSize=16;strokeWidth=2;fillColor=none;gradientColor=none;" parent="NF0Np_t6BkGrypGyfuFB-1" vertex="1">
          <mxGeometry x="34.33000000000001" y="820" width="258.81" height="100" as="geometry" />
        </mxCell>
        <mxCell id="9s0jYGuW6LMjN6YKZ2_i-7" value="" style="endArrow=classic;html=1;rounded=0;fontSize=16;strokeWidth=2;entryX=0.25;entryY=1;entryDx=0;entryDy=0;exitX=0.321;exitY=-0.002;exitDx=0;exitDy=0;exitPerimeter=0;" parent="NF0Np_t6BkGrypGyfuFB-1" source="9s0jYGuW6LMjN6YKZ2_i-4" target="9s0jYGuW6LMjN6YKZ2_i-1" edge="1">
          <mxGeometry width="50" height="50" relative="1" as="geometry">
            <mxPoint x="-15.669999999999986" y="1050" as="sourcePoint" />
            <mxPoint x="34.33000000000001" y="1000" as="targetPoint" />
          </mxGeometry>
        </mxCell>
        <mxCell id="5SlPkTOlAeZYJuMUhMBs-1" value="&lt;b style=&quot;color: rgb(255 , 0 , 255) ; font-size: 16px ; text-align: left ; background-color: rgb(248 , 249 , 250)&quot;&gt;Token B&lt;/b&gt;" style="edgeLabel;html=1;align=center;verticalAlign=middle;resizable=0;points=[];fontColor=#FF8000;" parent="9s0jYGuW6LMjN6YKZ2_i-7" vertex="1" connectable="0">
          <mxGeometry x="0.0195" y="-3" relative="1" as="geometry">
            <mxPoint x="-5" as="offset" />
          </mxGeometry>
        </mxCell>
        <mxCell id="9s0jYGuW6LMjN6YKZ2_i-8" value="" style="endArrow=classic;html=1;rounded=0;fontSize=16;strokeWidth=2;entryX=0.686;entryY=-0.002;entryDx=0;entryDy=0;exitX=0.75;exitY=1;exitDx=0;exitDy=0;entryPerimeter=0;" parent="NF0Np_t6BkGrypGyfuFB-1" source="9s0jYGuW6LMjN6YKZ2_i-1" target="9s0jYGuW6LMjN6YKZ2_i-4" edge="1">
          <mxGeometry width="50" height="50" relative="1" as="geometry">
            <mxPoint x="127.40801000000019" y="829.8000000000001" as="sourcePoint" />
            <mxPoint x="126.67249999999999" y="740" as="targetPoint" />
          </mxGeometry>
        </mxCell>
        <mxCell id="5SlPkTOlAeZYJuMUhMBs-0" value="&lt;b style=&quot;font-size: 16px ; text-align: left ; background-color: rgb(248 , 249 , 250)&quot;&gt;Token A&lt;/b&gt;" style="edgeLabel;html=1;align=center;verticalAlign=middle;resizable=0;points=[];fontColor=#FF8000;" parent="9s0jYGuW6LMjN6YKZ2_i-8" vertex="1" connectable="0">
          <mxGeometry x="-0.1988" y="-2" relative="1" as="geometry">
            <mxPoint y="7" as="offset" />
          </mxGeometry>
        </mxCell>
        <mxCell id="9s0jYGuW6LMjN6YKZ2_i-9" value="" style="endArrow=classic;html=1;fontSize=16;strokeWidth=2;entryX=0;entryY=0.25;entryDx=0;entryDy=0;strokeColor=default;rounded=1;exitX=1;exitY=0.25;exitDx=0;exitDy=0;" parent="NF0Np_t6BkGrypGyfuFB-1" source="9s0jYGuW6LMjN6YKZ2_i-4" target="8W4dbtrHn0Z-aW4DzXWO-12" edge="1">
          <mxGeometry width="50" height="50" relative="1" as="geometry">
            <mxPoint x="318.95000000000005" y="830" as="sourcePoint" />
            <mxPoint x="372.78999999999996" y="800" as="targetPoint" />
            <Array as="points">
              <mxPoint x="323.97" y="845" />
              <mxPoint x="324" y="770" />
            </Array>
          </mxGeometry>
        </mxCell>
        <mxCell id="9s0jYGuW6LMjN6YKZ2_i-10" value="" style="endArrow=classic;html=1;rounded=1;fontSize=16;strokeWidth=2;entryX=1;entryY=0.75;entryDx=0;entryDy=0;exitX=0;exitY=0.75;exitDx=0;exitDy=0;" parent="NF0Np_t6BkGrypGyfuFB-1" source="8W4dbtrHn0Z-aW4DzXWO-12" target="9s0jYGuW6LMjN6YKZ2_i-4" edge="1">
          <mxGeometry width="50" height="50" relative="1" as="geometry">
            <mxPoint x="372.78999999999996" y="840" as="sourcePoint" />
            <mxPoint x="907.54366" y="849.8000000000001" as="targetPoint" />
            <Array as="points">
              <mxPoint x="354" y="810" />
              <mxPoint x="353.97" y="895" />
            </Array>
          </mxGeometry>
        </mxCell>
        <mxCell id="FciFHrLaRQf3QhfO1faf-4" value="" style="curved=1;endArrow=none;html=1;rounded=0;fontColor=#FF00FF;startArrow=none;startFill=0;endFill=0;strokeWidth=3;" parent="NF0Np_t6BkGrypGyfuFB-1" edge="1">
          <mxGeometry width="50" height="50" relative="1" as="geometry">
            <mxPoint x="875.33" y="414" as="sourcePoint" />
            <mxPoint x="655.8300000000003" y="194" as="targetPoint" />
            <Array as="points">
              <mxPoint x="754.83" y="414" />
              <mxPoint x="655.83" y="334" />
            </Array>
          </mxGeometry>
        </mxCell>
        <mxCell id="FciFHrLaRQf3QhfO1faf-6" value="" style="ellipse;shape=doubleEllipse;whiteSpace=wrap;html=1;aspect=fixed;" parent="NF0Np_t6BkGrypGyfuFB-1" vertex="1">
          <mxGeometry x="749.5500000000001" y="393" width="11" height="11" as="geometry" />
        </mxCell>
        <mxCell id="FciFHrLaRQf3QhfO1faf-15" value="&lt;font color=&quot;#000000&quot; style=&quot;font-size: 14px&quot;&gt;(90, 9)&lt;/font&gt;" style="text;html=1;strokeColor=none;fillColor=none;align=center;verticalAlign=middle;whiteSpace=wrap;rounded=0;labelBackgroundColor=none;fontColor=#FFFFFF;" parent="NF0Np_t6BkGrypGyfuFB-1" vertex="1">
          <mxGeometry x="714.33" y="400" width="60" height="30" as="geometry" />
        </mxCell>
        <mxCell id="FciFHrLaRQf3QhfO1faf-16" value="&lt;font color=&quot;#000000&quot; style=&quot;font-size: 14px&quot;&gt;(100, 10)&lt;/font&gt;" style="text;html=1;strokeColor=none;fillColor=none;align=center;verticalAlign=middle;whiteSpace=wrap;rounded=0;labelBackgroundColor=none;fontColor=#FFFFFF;" parent="NF0Np_t6BkGrypGyfuFB-1" vertex="1">
          <mxGeometry x="815.69" y="295.5" width="60" height="30" as="geometry" />
        </mxCell>
        <mxCell id="FciFHrLaRQf3QhfO1faf-17" value="" style="endArrow=openThin;html=1;rounded=0;fillColor=#f5f5f5;strokeColor=#808080;strokeWidth=2;endFill=0;" parent="NF0Np_t6BkGrypGyfuFB-1" edge="1">
          <mxGeometry width="50" height="50" relative="1" as="geometry">
            <mxPoint x="715.47" y="340" as="sourcePoint" />
            <mxPoint x="755.61" y="300" as="targetPoint" />
          </mxGeometry>
        </mxCell>
        <mxCell id="FciFHrLaRQf3QhfO1faf-19" value="" style="endArrow=openThin;html=1;rounded=0;fillColor=#f5f5f5;strokeColor=#808080;strokeWidth=2;endFill=0;" parent="NF0Np_t6BkGrypGyfuFB-1" edge="1">
          <mxGeometry width="50" height="50" relative="1" as="geometry">
            <mxPoint x="771.47" y="317" as="sourcePoint" />
            <mxPoint x="731.47" y="357" as="targetPoint" />
          </mxGeometry>
        </mxCell>
        <mxCell id="FciFHrLaRQf3QhfO1faf-20" value="&lt;font style=&quot;font-size: 14px&quot; color=&quot;#808080&quot;&gt;Liquidity&lt;br&gt;Addition&lt;/font&gt;" style="text;html=1;align=center;verticalAlign=middle;resizable=0;points=[];autosize=1;strokeColor=none;fillColor=none;fontColor=#000000;" parent="NF0Np_t6BkGrypGyfuFB-1" vertex="1">
          <mxGeometry x="672.83" y="277" width="70" height="40" as="geometry" />
        </mxCell>
        <mxCell id="FciFHrLaRQf3QhfO1faf-21" value="&lt;font style=&quot;font-size: 14px&quot; color=&quot;#808080&quot;&gt;Liquidity&lt;br&gt;Withdrawal&lt;/font&gt;" style="text;html=1;align=center;verticalAlign=middle;resizable=0;points=[];autosize=1;strokeColor=none;fillColor=none;fontColor=#000000;" parent="NF0Np_t6BkGrypGyfuFB-1" vertex="1">
          <mxGeometry x="742.69" y="343" width="80" height="40" as="geometry" />
        </mxCell>
        <mxCell id="LdxQXIA2dUA2e6c3VNJA-4" value="" style="whiteSpace=wrap;html=1;aspect=fixed;rounded=0;fontColor=#FF00FF;fillColor=none;" parent="NF0Np_t6BkGrypGyfuFB-1" vertex="1">
          <mxGeometry x="635.6900000000002" y="834" width="240" height="240" as="geometry" />
        </mxCell>
        <mxCell id="LdxQXIA2dUA2e6c3VNJA-6" value="&lt;span style=&quot;font-family: &amp;#34;helvetica&amp;#34; ; font-size: 16px ; font-style: normal ; letter-spacing: normal ; text-indent: 0px ; text-transform: none ; word-spacing: 0px ; background-color: rgb(248 , 249 , 250) ; display: inline ; float: none&quot;&gt;Amount&lt;font color=&quot;#ff8000&quot; style=&quot;font-weight: bold&quot;&gt; Token A&lt;/font&gt;&lt;/span&gt;" style="text;whiteSpace=wrap;html=1;align=center;" parent="NF0Np_t6BkGrypGyfuFB-1" vertex="1">
          <mxGeometry x="671.37" y="1074" width="168.64" height="30" as="geometry" />
        </mxCell>
        <mxCell id="LdxQXIA2dUA2e6c3VNJA-7" value="&lt;span style=&quot;font-family: &amp;#34;helvetica&amp;#34; ; font-size: 16px ; font-style: normal ; letter-spacing: normal ; text-indent: 0px ; text-transform: none ; word-spacing: 0px ; background-color: rgb(248 , 249 , 250) ; display: inline ; float: none&quot;&gt;Amount&lt;b style=&quot;color: rgb(255 , 0 , 255)&quot;&gt; Token B&lt;/b&gt;&lt;/span&gt;" style="text;whiteSpace=wrap;html=1;rotation=-90;align=center;" parent="NF0Np_t6BkGrypGyfuFB-1" vertex="1">
          <mxGeometry x="546.33" y="939" width="150" height="30" as="geometry" />
        </mxCell>
        <mxCell id="LdxQXIA2dUA2e6c3VNJA-10" value="" style="curved=1;endArrow=none;html=1;rounded=0;fontColor=#FF00FF;startArrow=none;startFill=0;endFill=0;strokeWidth=3;" parent="NF0Np_t6BkGrypGyfuFB-1" edge="1">
          <mxGeometry width="50" height="50" relative="1" as="geometry">
            <mxPoint x="876.33" y="1034" as="sourcePoint" />
            <mxPoint x="676.33" y="834" as="targetPoint" />
            <Array as="points">
              <mxPoint x="781.33" y="1034" />
              <mxPoint x="676.33" y="934" />
            </Array>
          </mxGeometry>
        </mxCell>
        <mxCell id="LdxQXIA2dUA2e6c3VNJA-11" value="" style="ellipse;shape=doubleEllipse;whiteSpace=wrap;html=1;aspect=fixed;" parent="NF0Np_t6BkGrypGyfuFB-1" vertex="1">
          <mxGeometry x="785.33" y="1016" width="11" height="11" as="geometry" />
        </mxCell>
        <mxCell id="LdxQXIA2dUA2e6c3VNJA-13" value="&lt;font color=&quot;#000000&quot; style=&quot;font-size: 14px&quot;&gt;(100, 10)&lt;/font&gt;" style="text;html=1;strokeColor=none;fillColor=none;align=center;verticalAlign=middle;whiteSpace=wrap;rounded=0;labelBackgroundColor=none;fontColor=#FFFFFF;" parent="NF0Np_t6BkGrypGyfuFB-1" vertex="1">
          <mxGeometry x="782.33" y="987" width="60" height="30" as="geometry" />
        </mxCell>
        <mxCell id="LdxQXIA2dUA2e6c3VNJA-15" value="" style="endArrow=openThin;html=1;rounded=0;fillColor=#f5f5f5;strokeColor=#808080;strokeWidth=2;endFill=0;" parent="NF0Np_t6BkGrypGyfuFB-1" edge="1">
          <mxGeometry width="50" height="50" relative="1" as="geometry">
            <mxPoint x="758.31" y="995" as="sourcePoint" />
            <mxPoint x="718.31" y="955" as="targetPoint" />
          </mxGeometry>
        </mxCell>
        <mxCell id="LdxQXIA2dUA2e6c3VNJA-17" value="&lt;font style=&quot;font-size: 14px&quot; color=&quot;#808080&quot;&gt;Sell Token B /&lt;br&gt;Buy Token A&lt;/font&gt;" style="text;html=1;align=center;verticalAlign=middle;resizable=0;points=[];autosize=1;strokeColor=none;fillColor=none;fontColor=#000000;" parent="NF0Np_t6BkGrypGyfuFB-1" vertex="1">
          <mxGeometry x="726.33" y="932" width="100" height="40" as="geometry" />
        </mxCell>
        <mxCell id="LdxQXIA2dUA2e6c3VNJA-18" value="" style="endArrow=none;html=1;rounded=0;fillColor=#f5f5f5;strokeColor=#808080;strokeWidth=2;endFill=0;startArrow=openThin;startFill=0;" parent="NF0Np_t6BkGrypGyfuFB-1" edge="1">
          <mxGeometry width="50" height="50" relative="1" as="geometry">
            <mxPoint x="739.9700000000001" y="1012" as="sourcePoint" />
            <mxPoint x="699.9700000000001" y="972" as="targetPoint" />
          </mxGeometry>
        </mxCell>
        <mxCell id="LdxQXIA2dUA2e6c3VNJA-19" value="&lt;font style=&quot;font-size: 14px&quot; color=&quot;#808080&quot;&gt;Buy Token B/&lt;br&gt;Sell Token A&lt;/font&gt;" style="text;html=1;align=center;verticalAlign=middle;resizable=0;points=[];autosize=1;strokeColor=none;fillColor=none;fontColor=#000000;" parent="NF0Np_t6BkGrypGyfuFB-1" vertex="1">
          <mxGeometry x="629.69" y="996" width="100" height="40" as="geometry" />
        </mxCell>
        <mxCell id="LdxQXIA2dUA2e6c3VNJA-29" value="" style="curved=1;endArrow=none;html=1;rounded=0;fontColor=#FF00FF;startArrow=none;startFill=0;endFill=0;strokeWidth=3;exitX=0.995;exitY=0.579;exitDx=0;exitDy=0;exitPerimeter=0;" parent="NF0Np_t6BkGrypGyfuFB-1" edge="1">
          <mxGeometry width="50" height="50" relative="1" as="geometry">
            <mxPoint x="875.4900000000004" y="332.96000000000004" as="sourcePoint" />
            <mxPoint x="740.33" y="194" as="targetPoint" />
            <Array as="points">
              <mxPoint x="812.33" y="333" />
              <mxPoint x="740.33" y="254" />
            </Array>
          </mxGeometry>
        </mxCell>
        <mxCell id="FciFHrLaRQf3QhfO1faf-10" value="" style="ellipse;shape=doubleEllipse;whiteSpace=wrap;html=1;aspect=fixed;" parent="NF0Np_t6BkGrypGyfuFB-1" vertex="1">
          <mxGeometry x="828.37" y="322.5" width="11" height="11" as="geometry" />
        </mxCell>
        <mxCell id="LdxQXIA2dUA2e6c3VNJA-34" value="" style="ellipse;shape=doubleEllipse;whiteSpace=wrap;html=1;aspect=fixed;" parent="NF0Np_t6BkGrypGyfuFB-1" vertex="1">
          <mxGeometry x="680.33" y="903" width="11" height="11" as="geometry" />
        </mxCell>
        <mxCell id="LdxQXIA2dUA2e6c3VNJA-36" value="&lt;font color=&quot;#000000&quot; style=&quot;font-size: 14px&quot;&gt;(10, 100)&lt;/font&gt;" style="text;html=1;strokeColor=none;fillColor=none;align=center;verticalAlign=middle;whiteSpace=wrap;rounded=0;labelBackgroundColor=none;fontColor=#FFFFFF;" parent="NF0Np_t6BkGrypGyfuFB-1" vertex="1">
          <mxGeometry x="690.19" y="874" width="60" height="30" as="geometry" />
        </mxCell>
        <mxCell id="LdxQXIA2dUA2e6c3VNJA-38" value="" style="endArrow=none;dashed=1;html=1;rounded=0;fontSize=14;fontColor=#808080;strokeColor=#808080;strokeWidth=3;fillColor=#000000;" parent="NF0Np_t6BkGrypGyfuFB-1" edge="1">
          <mxGeometry width="50" height="50" relative="1" as="geometry">
            <mxPoint x="600" y="580" as="sourcePoint" />
            <mxPoint x="600" y="50" as="targetPoint" />
          </mxGeometry>
        </mxCell>
        <mxCell id="LdxQXIA2dUA2e6c3VNJA-39" value="&lt;b&gt;Liquidity Provider&lt;/b&gt;" style="rounded=1;whiteSpace=wrap;html=1;shadow=0;fontSize=16;strokeWidth=4;fillColor=none;gradientColor=none;" parent="NF0Np_t6BkGrypGyfuFB-1" vertex="1">
          <mxGeometry x="65.64" y="335" width="188.25" height="40" as="geometry" />
        </mxCell>
        <mxCell id="LdxQXIA2dUA2e6c3VNJA-40" value="&lt;div&gt;&lt;b&gt;Pool of AMM-based DEX&lt;/b&gt;&lt;/div&gt;&lt;div&gt;&lt;b&gt;&lt;br&gt;&lt;/b&gt;&lt;/div&gt;&lt;div&gt;&lt;b&gt;&lt;br&gt;&lt;/b&gt;&lt;/div&gt;&lt;div&gt;&lt;b&gt;&lt;br&gt;&lt;/b&gt;&lt;/div&gt;&lt;div&gt;&lt;b&gt;&lt;br&gt;&lt;/b&gt;&lt;/div&gt;&lt;div&gt;&lt;b&gt;&lt;br&gt;&lt;/b&gt;&lt;/div&gt;&lt;div&gt;&lt;b&gt;&lt;br&gt;&lt;/b&gt;&lt;/div&gt;&lt;div&gt;&lt;b&gt;&lt;br&gt;&lt;/b&gt;&lt;/div&gt;&lt;div&gt;&lt;b&gt;&lt;br&gt;&lt;/b&gt;&lt;/div&gt;&lt;div&gt;&lt;br&gt;&lt;/div&gt;" style="rounded=1;whiteSpace=wrap;html=1;shadow=0;fontSize=16;strokeWidth=4;fillColor=none;gradientColor=none;align=center;" parent="NF0Np_t6BkGrypGyfuFB-1" vertex="1">
          <mxGeometry x="335.64" y="335" width="244.36" height="240" as="geometry" />
        </mxCell>
        <mxCell id="LdxQXIA2dUA2e6c3VNJA-41" value="&lt;div&gt;&lt;b&gt;WITHDRAW&amp;nbsp;&lt;/b&gt;action&lt;/div&gt;&lt;div&gt;&lt;br&gt;&lt;/div&gt;&lt;span style=&quot;text-align: left&quot;&gt;&amp;nbsp;&lt;/span&gt;&lt;span style=&quot;text-align: left&quot;&gt;&amp;nbsp;Input:&amp;nbsp;&lt;/span&gt;&lt;font color=&quot;#009900&quot; style=&quot;text-align: left&quot;&gt;&lt;b&gt;4 LP Shares&lt;/b&gt;&lt;/font&gt;&lt;span style=&quot;text-align: left&quot;&gt;&lt;br&gt;Output: &lt;font color=&quot;#ff8000&quot;&gt;&lt;b&gt;10 Token A&lt;/b&gt;&lt;/font&gt;&lt;font color=&quot;#cc6600&quot;&gt; &lt;/font&gt;+ &lt;font color=&quot;#ff00ff&quot;&gt;&lt;b&gt;1 Token B&lt;/b&gt;&lt;/font&gt;&lt;/span&gt;" style="rounded=0;whiteSpace=wrap;html=1;shadow=0;fontSize=16;strokeWidth=2;fillColor=none;gradientColor=none;" parent="NF0Np_t6BkGrypGyfuFB-1" vertex="1">
          <mxGeometry x="34.33" y="465" width="250.87" height="100" as="geometry" />
        </mxCell>
        <mxCell id="LdxQXIA2dUA2e6c3VNJA-42" value="&lt;font&gt;&lt;b style=&quot;font-size: 16px&quot;&gt;Reserves&lt;/b&gt;&lt;br&gt;&lt;b style=&quot;font-size: 16px&quot;&gt;&lt;span style=&quot;color: rgb(255 , 128 , 0)&quot;&gt;Token A: 100&amp;nbsp;&lt;/span&gt;&lt;/b&gt;&lt;span style=&quot;font-family: &amp;#34;arial unicode ms&amp;#34; , &amp;#34;lucida sans unicode&amp;#34; , sans-serif&quot;&gt;&lt;font style=&quot;font-size: 21px&quot; color=&quot;#ff8000&quot;&gt;→&lt;/font&gt;&lt;/span&gt;&lt;b style=&quot;font-size: 16px&quot;&gt;&lt;span style=&quot;color: rgb(255 , 128 , 0)&quot;&gt;&amp;nbsp;90&lt;/span&gt;&lt;br&gt;&lt;font color=&quot;#ff00ff&quot; style=&quot;font-size: 16px&quot;&gt;Token B: 10&amp;nbsp;&lt;/font&gt;&lt;/b&gt;&lt;span style=&quot;font-family: &amp;#34;arial unicode ms&amp;#34; , &amp;#34;lucida sans unicode&amp;#34; , sans-serif&quot;&gt;&lt;font color=&quot;#ff00ff&quot; style=&quot;font-size: 21px&quot;&gt;→&lt;/font&gt;&lt;/span&gt;&lt;b style=&quot;font-size: 16px&quot;&gt;&lt;font color=&quot;#ff00ff&quot; style=&quot;font-size: 16px&quot;&gt;&amp;nbsp;9&lt;/font&gt;&lt;/b&gt;&lt;/font&gt;" style="rounded=1;whiteSpace=wrap;html=1;shadow=0;fontSize=16;strokeWidth=2;fillColor=none;gradientColor=none;" parent="NF0Np_t6BkGrypGyfuFB-1" vertex="1">
          <mxGeometry x="368.82" y="395" width="181.18" height="80" as="geometry" />
        </mxCell>
        <mxCell id="LdxQXIA2dUA2e6c3VNJA-43" value="&lt;b&gt;Liquidity Shares&lt;br&gt;&lt;/b&gt;&lt;font color=&quot;#009900&quot;&gt;&lt;b&gt;Pool Tokens: 40&lt;/b&gt;&lt;/font&gt;&lt;b style=&quot;color: rgb(0 , 153 , 0)&quot;&gt;&amp;nbsp;&lt;/b&gt;&lt;span style=&quot;color: rgb(0 , 153 , 0) ; font-family: &amp;#34;arial unicode ms&amp;#34; , &amp;#34;lucida sans unicode&amp;#34; , sans-serif&quot;&gt;&lt;font style=&quot;font-size: 21px&quot;&gt;→&lt;/font&gt;&lt;/span&gt;&lt;b style=&quot;color: rgb(0 , 153 , 0)&quot;&gt;&amp;nbsp;&lt;/b&gt;&lt;font color=&quot;#009900&quot;&gt;&lt;b&gt;36&lt;/b&gt;&lt;/font&gt;" style="rounded=1;whiteSpace=wrap;html=1;shadow=0;fontSize=16;strokeWidth=2;fillColor=none;gradientColor=none;" parent="NF0Np_t6BkGrypGyfuFB-1" vertex="1">
          <mxGeometry x="367.23" y="486" width="181.18" height="75" as="geometry" />
        </mxCell>
        <mxCell id="LdxQXIA2dUA2e6c3VNJA-44" value="" style="endArrow=classic;html=1;rounded=0;fontSize=16;strokeWidth=2;entryX=0.25;entryY=1;entryDx=0;entryDy=0;exitX=0.311;exitY=-0.002;exitDx=0;exitDy=0;exitPerimeter=0;" parent="NF0Np_t6BkGrypGyfuFB-1" source="LdxQXIA2dUA2e6c3VNJA-41" target="LdxQXIA2dUA2e6c3VNJA-39" edge="1">
          <mxGeometry width="50" height="50" relative="1" as="geometry">
            <mxPoint x="126.37801000000024" y="504.80000000000007" as="sourcePoint" />
            <mxPoint x="125.64250000000004" y="415" as="targetPoint" />
          </mxGeometry>
        </mxCell>
        <mxCell id="LdxQXIA2dUA2e6c3VNJA-45" value="&lt;div style=&quot;text-align: left&quot;&gt;&lt;font color=&quot;#000000&quot;&gt;&lt;span style=&quot;background-color: rgb(248 , 249 , 250)&quot;&gt;Token&lt;/span&gt;&lt;/font&gt;&lt;/div&gt;" style="edgeLabel;html=1;align=center;verticalAlign=middle;resizable=0;points=[];fontSize=16;fontColor=#FF8000;" parent="LdxQXIA2dUA2e6c3VNJA-44" vertex="1" connectable="0">
          <mxGeometry x="0.1637" y="-1" relative="1" as="geometry">
            <mxPoint x="-1" y="6" as="offset" />
          </mxGeometry>
        </mxCell>
        <mxCell id="LdxQXIA2dUA2e6c3VNJA-46" value="&lt;div style=&quot;text-align: left&quot;&gt;&lt;span style=&quot;background-color: rgb(248 , 249 , 250)&quot;&gt;Surrender&lt;/span&gt;&lt;/div&gt;&lt;div style=&quot;text-align: left&quot;&gt;&lt;span style=&quot;background-color: rgb(248 , 249 , 250)&quot;&gt;LP Shares&lt;/span&gt;&lt;/div&gt;" style="endArrow=classic;html=1;rounded=0;fontSize=16;strokeWidth=2;entryX=0.688;entryY=-0.002;entryDx=0;entryDy=0;exitX=0.75;exitY=1;exitDx=0;exitDy=0;entryPerimeter=0;" parent="NF0Np_t6BkGrypGyfuFB-1" source="LdxQXIA2dUA2e6c3VNJA-39" target="LdxQXIA2dUA2e6c3VNJA-41" edge="1">
          <mxGeometry width="50" height="50" relative="1" as="geometry">
            <mxPoint x="916.8275" y="385" as="sourcePoint" />
            <mxPoint x="917.9036600000001" y="474.80000000000007" as="targetPoint" />
          </mxGeometry>
        </mxCell>
        <mxCell id="LdxQXIA2dUA2e6c3VNJA-47" value="" style="endArrow=classic;html=1;rounded=1;fontSize=16;strokeWidth=2;entryX=0;entryY=0.5;entryDx=0;entryDy=0;exitX=1;exitY=0.25;exitDx=0;exitDy=0;" parent="NF0Np_t6BkGrypGyfuFB-1" source="LdxQXIA2dUA2e6c3VNJA-41" target="LdxQXIA2dUA2e6c3VNJA-42" edge="1">
          <mxGeometry width="50" height="50" relative="1" as="geometry">
            <mxPoint x="823.4380100000002" y="474.80000000000007" as="sourcePoint" />
            <mxPoint x="822.7025" y="385" as="targetPoint" />
            <Array as="points">
              <mxPoint x="315.64" y="490" />
              <mxPoint x="316" y="435" />
            </Array>
          </mxGeometry>
        </mxCell>
        <mxCell id="LdxQXIA2dUA2e6c3VNJA-48" value="" style="endArrow=classic;html=1;rounded=1;fontSize=16;strokeWidth=2;entryX=1;entryY=0.75;entryDx=0;entryDy=0;exitX=0;exitY=0.5;exitDx=0;exitDy=0;" parent="NF0Np_t6BkGrypGyfuFB-1" source="LdxQXIA2dUA2e6c3VNJA-43" target="LdxQXIA2dUA2e6c3VNJA-41" edge="1">
          <mxGeometry width="50" height="50" relative="1" as="geometry">
            <mxPoint x="823.4380100000002" y="474.80000000000007" as="sourcePoint" />
            <mxPoint x="822.7025" y="385" as="targetPoint" />
            <Array as="points">
              <mxPoint x="350" y="524" />
              <mxPoint x="350" y="540" />
            </Array>
          </mxGeometry>
        </mxCell>
        <mxCell id="8W4dbtrHn0Z-aW4DzXWO-11" value="&lt;div&gt;&lt;b&gt;Pool of AMM-based DEX&lt;/b&gt;&lt;/div&gt;&lt;div&gt;&lt;b&gt;&lt;br&gt;&lt;/b&gt;&lt;/div&gt;&lt;div&gt;&lt;b&gt;&lt;br&gt;&lt;/b&gt;&lt;/div&gt;&lt;div&gt;&lt;b&gt;&lt;br&gt;&lt;/b&gt;&lt;/div&gt;&lt;div&gt;&lt;b&gt;&lt;br&gt;&lt;/b&gt;&lt;/div&gt;&lt;div&gt;&lt;b&gt;&lt;br&gt;&lt;/b&gt;&lt;/div&gt;&lt;div&gt;&lt;b&gt;&lt;br&gt;&lt;/b&gt;&lt;/div&gt;&lt;div&gt;&lt;b&gt;&lt;br&gt;&lt;/b&gt;&lt;/div&gt;&lt;div&gt;&lt;b&gt;&lt;br&gt;&lt;/b&gt;&lt;/div&gt;&lt;div&gt;&lt;br&gt;&lt;/div&gt;" style="rounded=1;whiteSpace=wrap;html=1;shadow=0;fontSize=16;strokeWidth=4;fillColor=none;gradientColor=none;align=center;" parent="NF0Np_t6BkGrypGyfuFB-1" vertex="1">
          <mxGeometry x="335.64" y="690" width="244.36" height="240" as="geometry" />
        </mxCell>
        <mxCell id="8W4dbtrHn0Z-aW4DzXWO-12" value="&lt;font&gt;&lt;b style=&quot;font-size: 16px&quot;&gt;Reserves&lt;/b&gt;&lt;br&gt;&lt;b style=&quot;font-size: 16px&quot;&gt;&lt;span style=&quot;color: rgb(255 , 128 , 0)&quot;&gt;Token A:&amp;nbsp; 10&amp;nbsp;&lt;/span&gt;&lt;/b&gt;&lt;span style=&quot;font-family: &amp;#34;arial unicode ms&amp;#34; , &amp;#34;lucida sans unicode&amp;#34; , sans-serif&quot;&gt;&lt;font style=&quot;font-size: 21px&quot; color=&quot;#ff8000&quot;&gt;→&lt;/font&gt;&lt;/span&gt;&lt;b style=&quot;font-size: 16px&quot;&gt;&lt;span style=&quot;color: rgb(255 , 128 , 0)&quot;&gt;&amp;nbsp;100&lt;/span&gt;&lt;br&gt;&lt;font color=&quot;#ff00ff&quot; style=&quot;font-size: 16px&quot;&gt;Token B: 100&amp;nbsp;&lt;/font&gt;&lt;/b&gt;&lt;span style=&quot;font-family: &amp;#34;arial unicode ms&amp;#34; , &amp;#34;lucida sans unicode&amp;#34; , sans-serif&quot;&gt;&lt;font color=&quot;#ff00ff&quot; style=&quot;font-size: 21px&quot;&gt;→&lt;/font&gt;&lt;/span&gt;&lt;b style=&quot;font-size: 16px&quot;&gt;&lt;font color=&quot;#ff00ff&quot; style=&quot;font-size: 16px&quot;&gt;&amp;nbsp;10&lt;/font&gt;&lt;/b&gt;&lt;/font&gt;" style="rounded=1;whiteSpace=wrap;html=1;shadow=0;fontSize=16;strokeWidth=2;fillColor=none;gradientColor=none;" parent="NF0Np_t6BkGrypGyfuFB-1" vertex="1">
          <mxGeometry x="368.82" y="750" width="181.18" height="80" as="geometry" />
        </mxCell>
        <mxCell id="8W4dbtrHn0Z-aW4DzXWO-13" value="&lt;b&gt;Liquidity Shares&lt;br&gt;&lt;/b&gt;&lt;br&gt;&lt;font color=&quot;#009900&quot;&gt;&lt;b&gt;Pool Tokens: 40&lt;/b&gt;&lt;/font&gt;" style="rounded=1;whiteSpace=wrap;html=1;shadow=0;fontSize=16;strokeWidth=2;fillColor=none;gradientColor=none;" parent="NF0Np_t6BkGrypGyfuFB-1" vertex="1">
          <mxGeometry x="368.82" y="840" width="181.18" height="70" as="geometry" />
        </mxCell>
        <mxCell id="8W4dbtrHn0Z-aW4DzXWO-14" value="&lt;b&gt;Trader&lt;/b&gt;" style="rounded=1;whiteSpace=wrap;html=1;shadow=0;fontSize=16;strokeWidth=4;fillColor=none;gradientColor=none;" parent="NF0Np_t6BkGrypGyfuFB-1" vertex="1">
          <mxGeometry x="69.60999999999999" y="966" width="188.25" height="40" as="geometry" />
        </mxCell>
        <mxCell id="8W4dbtrHn0Z-aW4DzXWO-15" value="&lt;div&gt;&lt;b&gt;SWAP &lt;/b&gt;action&lt;/div&gt;&lt;div&gt;&lt;br&gt;&lt;/div&gt;&lt;span style=&quot;text-align: left&quot;&gt;&amp;nbsp;Input: &lt;b&gt;&lt;font color=&quot;#ff00ff&quot;&gt;90 Token B&lt;/font&gt;&lt;/b&gt;&lt;/span&gt;&lt;br style=&quot;text-align: left&quot;&gt;&lt;span style=&quot;text-align: left&quot;&gt;&amp;nbsp;Output: &lt;font color=&quot;#ff8000&quot;&gt;&lt;b&gt;90&amp;nbsp;Token A&lt;/b&gt;&lt;/font&gt;&lt;/span&gt;" style="rounded=0;whiteSpace=wrap;html=1;shadow=0;fontSize=16;strokeWidth=2;fillColor=none;gradientColor=none;" parent="NF0Np_t6BkGrypGyfuFB-1" vertex="1">
          <mxGeometry x="34.33000000000001" y="1096" width="258.81" height="100" as="geometry" />
        </mxCell>
        <mxCell id="8W4dbtrHn0Z-aW4DzXWO-16" value="" style="endArrow=classic;html=1;rounded=0;fontSize=16;strokeWidth=2;entryX=0.25;entryY=1;entryDx=0;entryDy=0;exitX=0.321;exitY=-0.002;exitDx=0;exitDy=0;exitPerimeter=0;" parent="NF0Np_t6BkGrypGyfuFB-1" source="8W4dbtrHn0Z-aW4DzXWO-15" target="8W4dbtrHn0Z-aW4DzXWO-14" edge="1">
          <mxGeometry width="50" height="50" relative="1" as="geometry">
            <mxPoint x="-15.669999999999986" y="1326" as="sourcePoint" />
            <mxPoint x="34.33000000000001" y="1276" as="targetPoint" />
          </mxGeometry>
        </mxCell>
        <mxCell id="5SlPkTOlAeZYJuMUhMBs-3" value="&lt;b style=&quot;font-size: 16px ; text-align: left ; background-color: rgb(248 , 249 , 250)&quot;&gt;Token A&lt;/b&gt;" style="edgeLabel;html=1;align=center;verticalAlign=middle;resizable=0;points=[];fontColor=#FF8000;" parent="8W4dbtrHn0Z-aW4DzXWO-16" vertex="1" connectable="0">
          <mxGeometry x="-0.0473" y="-3" relative="1" as="geometry">
            <mxPoint x="-3" as="offset" />
          </mxGeometry>
        </mxCell>
        <mxCell id="8W4dbtrHn0Z-aW4DzXWO-17" value="" style="endArrow=classic;html=1;rounded=0;fontSize=16;strokeWidth=2;entryX=0.686;entryY=-0.002;entryDx=0;entryDy=0;exitX=0.75;exitY=1;exitDx=0;exitDy=0;entryPerimeter=0;" parent="NF0Np_t6BkGrypGyfuFB-1" source="8W4dbtrHn0Z-aW4DzXWO-14" target="8W4dbtrHn0Z-aW4DzXWO-15" edge="1">
          <mxGeometry width="50" height="50" relative="1" as="geometry">
            <mxPoint x="127.40801000000019" y="1105.8000000000002" as="sourcePoint" />
            <mxPoint x="126.67249999999999" y="1016" as="targetPoint" />
          </mxGeometry>
        </mxCell>
        <mxCell id="5SlPkTOlAeZYJuMUhMBs-2" value="&lt;b style=&quot;color: rgb(0 , 0 , 0) ; font-size: 16px ; text-align: left ; background-color: rgb(248 , 249 , 250)&quot;&gt;&lt;font color=&quot;#ff00ff&quot;&gt;Token B&lt;/font&gt;&lt;/b&gt;" style="edgeLabel;html=1;align=center;verticalAlign=middle;resizable=0;points=[];fontColor=#FF8000;" parent="8W4dbtrHn0Z-aW4DzXWO-17" vertex="1" connectable="0">
          <mxGeometry x="-0.0652" y="-2" relative="1" as="geometry">
            <mxPoint y="5" as="offset" />
          </mxGeometry>
        </mxCell>
        <mxCell id="8W4dbtrHn0Z-aW4DzXWO-18" value="" style="endArrow=classic;html=1;fontSize=16;strokeWidth=2;entryX=0;entryY=0.25;entryDx=0;entryDy=0;strokeColor=default;rounded=1;exitX=1;exitY=0.25;exitDx=0;exitDy=0;" parent="NF0Np_t6BkGrypGyfuFB-1" source="8W4dbtrHn0Z-aW4DzXWO-15" target="8W4dbtrHn0Z-aW4DzXWO-21" edge="1">
          <mxGeometry width="50" height="50" relative="1" as="geometry">
            <mxPoint x="318.95000000000005" y="1106" as="sourcePoint" />
            <mxPoint x="372.78999999999996" y="1076" as="targetPoint" />
            <Array as="points">
              <mxPoint x="323.97" y="1121" />
              <mxPoint x="324" y="1046" />
            </Array>
          </mxGeometry>
        </mxCell>
        <mxCell id="8W4dbtrHn0Z-aW4DzXWO-19" value="" style="endArrow=classic;html=1;rounded=1;fontSize=16;strokeWidth=2;entryX=1;entryY=0.75;entryDx=0;entryDy=0;exitX=0;exitY=0.75;exitDx=0;exitDy=0;" parent="NF0Np_t6BkGrypGyfuFB-1" source="8W4dbtrHn0Z-aW4DzXWO-21" target="8W4dbtrHn0Z-aW4DzXWO-15" edge="1">
          <mxGeometry width="50" height="50" relative="1" as="geometry">
            <mxPoint x="372.78999999999996" y="1116" as="sourcePoint" />
            <mxPoint x="907.54366" y="1125.8000000000002" as="targetPoint" />
            <Array as="points">
              <mxPoint x="354" y="1086" />
              <mxPoint x="353.97" y="1171" />
            </Array>
          </mxGeometry>
        </mxCell>
        <mxCell id="8W4dbtrHn0Z-aW4DzXWO-20" value="&lt;div&gt;&lt;b&gt;Pool of AMM-based DEX&lt;/b&gt;&lt;/div&gt;&lt;div&gt;&lt;b&gt;&lt;br&gt;&lt;/b&gt;&lt;/div&gt;&lt;div&gt;&lt;b&gt;&lt;br&gt;&lt;/b&gt;&lt;/div&gt;&lt;div&gt;&lt;b&gt;&lt;br&gt;&lt;/b&gt;&lt;/div&gt;&lt;div&gt;&lt;b&gt;&lt;br&gt;&lt;/b&gt;&lt;/div&gt;&lt;div&gt;&lt;b&gt;&lt;br&gt;&lt;/b&gt;&lt;/div&gt;&lt;div&gt;&lt;b&gt;&lt;br&gt;&lt;/b&gt;&lt;/div&gt;&lt;div&gt;&lt;b&gt;&lt;br&gt;&lt;/b&gt;&lt;/div&gt;&lt;div&gt;&lt;b&gt;&lt;br&gt;&lt;/b&gt;&lt;/div&gt;&lt;div&gt;&lt;br&gt;&lt;/div&gt;" style="rounded=1;whiteSpace=wrap;html=1;shadow=0;fontSize=16;strokeWidth=4;fillColor=none;gradientColor=none;align=center;" parent="NF0Np_t6BkGrypGyfuFB-1" vertex="1">
          <mxGeometry x="335.64" y="966" width="244.36" height="240" as="geometry" />
        </mxCell>
        <mxCell id="8W4dbtrHn0Z-aW4DzXWO-21" value="&lt;font&gt;&lt;b style=&quot;font-size: 16px&quot;&gt;Reserves&lt;/b&gt;&lt;br&gt;&lt;b style=&quot;font-size: 16px&quot;&gt;&lt;span style=&quot;color: rgb(255 , 128 , 0)&quot;&gt;Token A: 10&amp;nbsp;&lt;/span&gt;&lt;/b&gt;&lt;span style=&quot;font-family: &amp;#34;arial unicode ms&amp;#34; , &amp;#34;lucida sans unicode&amp;#34; , sans-serif&quot;&gt;&lt;font style=&quot;font-size: 21px&quot; color=&quot;#ff8000&quot;&gt;→&lt;/font&gt;&lt;/span&gt;&lt;b style=&quot;font-size: 16px&quot;&gt;&lt;span style=&quot;color: rgb(255 , 128 , 0)&quot;&gt;&amp;nbsp;100&lt;/span&gt;&lt;br&gt;&lt;font color=&quot;#ff00ff&quot; style=&quot;font-size: 16px&quot;&gt;Token B: 100&amp;nbsp;&lt;/font&gt;&lt;/b&gt;&lt;span style=&quot;font-family: &amp;#34;arial unicode ms&amp;#34; , &amp;#34;lucida sans unicode&amp;#34; , sans-serif&quot;&gt;&lt;font color=&quot;#ff00ff&quot; style=&quot;font-size: 21px&quot;&gt;→&lt;/font&gt;&lt;/span&gt;&lt;b style=&quot;font-size: 16px&quot;&gt;&lt;font color=&quot;#ff00ff&quot; style=&quot;font-size: 16px&quot;&gt;&amp;nbsp;10&lt;/font&gt;&lt;/b&gt;&lt;/font&gt;" style="rounded=1;whiteSpace=wrap;html=1;shadow=0;fontSize=16;strokeWidth=2;fillColor=none;gradientColor=none;" parent="NF0Np_t6BkGrypGyfuFB-1" vertex="1">
          <mxGeometry x="368.82" y="1026" width="181.18" height="80" as="geometry" />
        </mxCell>
        <mxCell id="8W4dbtrHn0Z-aW4DzXWO-22" value="&lt;b&gt;Liquidity Shares&lt;br&gt;&lt;/b&gt;&lt;font color=&quot;#009900&quot;&gt;&lt;b&gt;&lt;br&gt;Pool Tokens: 40&lt;/b&gt;&lt;/font&gt;" style="rounded=1;whiteSpace=wrap;html=1;shadow=0;fontSize=16;strokeWidth=2;fillColor=none;gradientColor=none;" parent="NF0Np_t6BkGrypGyfuFB-1" vertex="1">
          <mxGeometry x="368.82" y="1116" width="181.18" height="70" as="geometry" />
        </mxCell>
        <mxCell id="8W4dbtrHn0Z-aW4DzXWO-23" value="" style="endArrow=none;dashed=1;html=1;rounded=0;fontSize=14;fontColor=#808080;strokeColor=#808080;strokeWidth=3;fillColor=#000000;" parent="NF0Np_t6BkGrypGyfuFB-1" edge="1">
          <mxGeometry width="50" height="50" relative="1" as="geometry">
            <mxPoint x="600" y="1213" as="sourcePoint" />
            <mxPoint x="600" y="683" as="targetPoint" />
          </mxGeometry>
        </mxCell>
      </root>
    </mxGraphModel>
  </diagram>
</mxfile>
